<svg xmlns="http://www.w3.org/2000/svg" xmlns:xlink="http://www.w3.org/1999/xlink" width="84.05" height="89.544" viewBox="0 0 84.05 89.544">
  <defs>
    <linearGradient id="linear-gradient" x1="0.164" y1="0.122" x2="0.901" y2="0.815" gradientUnits="objectBoundingBox">
      <stop offset="0" stop-color="#ff0"/>
      <stop offset="0.069" stop-color="#ffe600"/>
      <stop offset="0.194" stop-color="#ffc100"/>
      <stop offset="0.325" stop-color="#ffa200"/>
      <stop offset="0.461" stop-color="#ff8b00"/>
      <stop offset="0.606" stop-color="#ff7a00"/>
      <stop offset="0.764" stop-color="#ff7000"/>
      <stop offset="0.96" stop-color="#ff6d00"/>
    </linearGradient>
  </defs>
  <g id="Grupo_35" data-name="Grupo 35" transform="translate(-363.768 -176.831)">
    <g id="Formas" transform="translate(363.768 176.831)">
      <g id="Componente_1_1" data-name="Componente 1 – 1" transform="translate(0 0)">
        <path id="Caminho_1" data-name="Caminho 1" d="M405.164,265.618c11.4,2.2,28.18.644,28.18-19.069,0-31.663,23.658-36.413,10.482-55.54-15.953-23.157-69.8-18.01-78.452,15.915C357.711,236.978,378.543,260.468,405.164,265.618Z" transform="translate(-363.768 -176.831)" fill="url(#linear-gradient)"/>
      </g>
    </g>
    <g id="Logos" transform="translate(390.082 204.754)">
      <path id="Caminho_2" data-name="Caminho 2" d="M534.793,335.364a3.983,3.983,0,1,0-3.975-3.987A3.981,3.981,0,0,0,534.793,335.364Zm.051,2.95c-2.237,0-4.06,5.324-4.06,11.892s1.823,11.889,4.06,11.889,4.054-5.321,4.054-11.889S537.083,338.314,534.845,338.314Zm-18.083-.013c-6.668,0-11.1,5.277-11.1,11.892s4.434,11.894,11.1,11.894c6.65,0,11.079-5.27,11.079-11.894S523.412,338.3,516.762,338.3Zm0,18.18c-3.058,0-4.75-3.141-4.75-6.326s1.692-6.234,4.75-6.234,4.736,3.053,4.736,6.234S519.809,356.481,516.762,356.481Z" transform="translate(-505.66 -327.399)" fill="#fff"/>
    </g>
  </g>
</svg>
